<svg width="14" height="12" viewBox="0 0 14 12" fill="none" xmlns="http://www.w3.org/2000/svg">
<path d="M13.9816 3.21175C13.9534 3.13706 13.8953 3.07756 13.8212 3.04767L12.5772 2.54578C12.5 2.14389 12.1947 1.82203 11.8019 1.72056L11.7348 0.947531C11.725 0.834415 11.6491 0.737862 11.5414 0.701596C11.4338 0.665361 11.315 0.696297 11.2387 0.780412L10.9195 1.13258L10.7221 0.441953C10.6881 0.322904 10.5812 0.239329 10.4574 0.235045C10.3329 0.230635 10.2212 0.306691 10.1791 0.423138L8.70464 4.4907C8.70464 4.4907 3.24314 4.74564 3.24085 4.74577C2.12093 4.81307 1.05993 4.21383 0.538549 3.21898C0.465286 3.07931 0.292709 3.02537 0.153067 3.0986C0.0133626 3.17183 -0.0405141 3.34441 0.0326858 3.48408C0.498792 4.37346 1.32433 4.99916 2.27091 5.22698C2.17265 5.34149 1.96152 5.62531 1.83806 6.07152C1.70381 6.5567 1.65543 7.33014 2.14904 8.31223L1.34844 9.39966C1.30167 9.46315 1.28327 9.54317 1.29758 9.62075L1.64994 11.5314C1.67491 11.6669 1.79304 11.7652 1.93078 11.7652H2.2897C2.37438 11.7652 2.45469 11.7276 2.50898 11.6626C2.56324 11.5976 2.58583 11.5118 2.57066 11.4285L2.34754 10.2029L4.70825 8.43071C4.7124 8.42756 4.70425 8.4341 4.70825 8.43071C4.93397 8.24112 5.09782 8.03231 5.21503 7.81763C6.4454 8.03364 8.12919 8.32594 9.20841 8.49975L9.6839 11.524C9.70577 11.6629 9.82542 11.7652 9.96601 11.7652H10.2613C10.4191 11.7652 10.5469 11.6374 10.5469 11.4797V8.4097C10.815 8.22662 10.9108 7.92043 10.9744 7.62056C10.9764 7.61113 11.6097 4.68825 11.6097 4.68825C11.729 4.70814 11.8496 4.71858 11.971 4.71858C12.8073 4.71858 13.5731 4.22896 13.9695 3.4408C14.0054 3.36954 14.0098 3.28647 13.9816 3.21175Z" fill="white"/>
</svg>
